<svg width="480" height="480" viewBox="0 0 480 480" fill="none" xmlns="http://www.w3.org/2000/svg">
<g clip-path="url(#clip0)">
<path d="M312.054 80.3002C270.698 80.2494 230.802 95.5933 200.138 123.342C164.79 78.0558 100.897 66.8845 52.2848 97.4981C3.6691 128.108 -13.8724 190.553 11.6904 242.002C37.2531 293.448 97.6177 317.184 151.374 296.93C153.642 304.373 156.444 311.641 159.754 318.683C127.06 340.206 112.544 380.753 124.145 418.135C135.745 455.513 170.668 480.721 209.799 479.956C248.933 479.191 282.841 452.64 292.974 414.833C354.834 421.96 415.554 394.251 450.707 342.852C485.856 291.453 489.658 224.816 460.578 169.752C431.499 114.688 374.323 80.2533 312.054 80.3002V80.3002ZM16.2768 192.216C16.2104 150.958 42.5772 114.298 81.7118 101.234C120.846 88.1692 163.951 101.64 188.682 134.662C160.032 165.513 144.133 206.072 144.18 248.174C144.204 259.294 145.328 270.379 147.529 281.277C118.013 293.108 84.5417 289.498 58.2256 271.64C31.9095 253.786 16.1909 224.02 16.2768 192.216V192.216ZM208.132 464.011C168.396 464.011 136.186 431.801 136.186 392.065C136.186 352.333 168.396 320.119 208.132 320.119C247.868 320.119 280.078 352.333 280.078 392.065C280.035 431.781 247.848 463.968 208.132 464.011ZM312.054 400.059C306.593 400.02 301.14 399.688 295.714 399.06C295.898 396.749 296.066 394.426 296.066 392.065C296.066 362.583 281.284 335.061 256.709 318.773C232.13 302.484 201.024 299.6 173.869 311.087C169.895 302.461 166.757 293.475 164.501 284.252C161.628 272.44 160.172 260.328 160.168 248.174C160.168 164.292 228.172 96.2881 312.054 96.2881C395.94 96.2881 463.939 164.292 463.939 248.174C463.939 332.059 395.94 400.059 312.054 400.059V400.059Z" fill="#97B8DB"/>
<path d="M72.2346 360.089C72.2346 355.674 68.6552 352.095 64.2406 352.095C59.826 352.095 56.2466 355.674 56.2466 360.089C56.2466 373.337 45.5086 384.071 32.2647 384.071C27.8501 384.071 24.2708 387.65 24.2708 392.065C24.2708 396.48 27.8501 400.059 32.2647 400.059C45.5086 400.059 56.2466 410.797 56.2466 424.041C56.2466 428.455 59.826 432.035 64.2406 432.035C68.6552 432.035 72.2346 428.455 72.2346 424.041C72.2346 410.797 82.9726 400.059 96.2165 400.059C100.631 400.059 104.21 396.48 104.21 392.065C104.21 387.65 100.631 384.071 96.2165 384.071C82.9726 384.071 72.2346 373.337 72.2346 360.089ZM64.2406 400.309C61.9142 397.17 59.1351 394.395 56.0007 392.065C59.1351 389.739 61.9142 386.959 64.2406 383.825C66.5709 386.959 69.3461 389.739 72.4844 392.065C69.3461 394.395 66.5709 397.17 64.2406 400.309V400.309Z" fill="#97B8DB"/>
<path d="M391.993 72.3062C391.993 76.7208 395.573 80.3002 399.987 80.3002C404.402 80.3002 407.981 76.7208 407.981 72.3062C407.981 59.0623 418.719 48.3243 431.963 48.3243C436.378 48.3243 439.957 44.745 439.957 40.3303C439.957 35.9157 436.378 32.3363 431.963 32.3363C418.719 32.3363 407.981 21.6023 407.981 8.35444C407.981 3.9398 404.402 0.360474 399.987 0.360474C395.573 0.360474 391.993 3.9398 391.993 8.35444C391.993 21.6023 381.255 32.3363 368.012 32.3363C363.597 32.3363 360.018 35.9157 360.018 40.3303C360.018 44.745 363.597 48.3243 368.012 48.3243C381.255 48.3243 391.993 59.0623 391.993 72.3062ZM399.987 32.0904C402.318 35.2248 405.093 38.0039 408.231 40.3303C405.093 42.6606 402.318 45.4358 399.987 48.5741C397.661 45.4358 394.882 42.6606 391.748 40.3303C394.882 38.0039 397.661 35.2248 399.987 32.0904Z" fill="#97B8DB"/>
<path d="M415.975 248.174C402.731 248.174 391.993 237.439 391.993 224.192C391.993 219.777 388.414 216.198 383.999 216.198C379.585 216.198 376.005 219.777 376.005 224.192C376.005 237.439 365.267 248.174 352.024 248.174C347.609 248.174 344.03 251.753 344.03 256.167C344.03 260.582 347.609 264.161 352.024 264.161C365.267 264.161 376.005 274.899 376.005 288.143C376.005 292.558 379.585 296.137 383.999 296.137C388.414 296.137 391.993 292.558 391.993 288.143C391.993 274.899 402.731 264.161 415.975 264.161C420.39 264.161 423.969 260.582 423.969 256.167C423.969 251.753 420.39 248.174 415.975 248.174ZM383.999 264.411C381.673 261.273 378.894 258.498 375.76 256.167C378.894 253.841 381.673 251.062 383.999 247.928C386.33 251.062 389.105 253.841 392.243 256.167C389.105 258.498 386.33 261.273 383.999 264.411Z" fill="#97B8DB"/>
<path d="M328.041 184.222C328.041 179.807 324.462 176.228 320.048 176.228C306.804 176.228 296.066 165.494 296.066 152.246C296.066 147.831 292.486 144.252 288.072 144.252C283.657 144.252 280.078 147.831 280.078 152.246C280.078 165.494 269.34 176.228 256.096 176.228C251.681 176.228 248.102 179.807 248.102 184.222C248.102 188.636 251.681 192.216 256.096 192.216C269.34 192.216 280.078 202.954 280.078 216.198C280.078 220.612 283.657 224.192 288.072 224.192C292.486 224.192 296.066 220.612 296.066 216.198C296.066 202.954 306.804 192.216 320.048 192.216C324.462 192.216 328.041 188.636 328.041 184.222ZM288.072 192.466C285.745 189.327 282.966 186.552 279.832 184.222C282.966 181.895 285.745 179.116 288.072 175.982C290.402 179.116 293.177 181.895 296.315 184.222C293.177 186.552 290.402 189.327 288.072 192.466Z" fill="#97B8DB"/>
<path d="M96.2166 328.113H112.204V344.101H96.2166V328.113Z" fill="#97B8DB"/>
<path d="M16.2769 440.029H32.2648V456.017H16.2769V440.029Z" fill="#97B8DB"/>
<path d="M471.933 416.047C471.933 402.803 461.195 392.065 447.951 392.065C434.707 392.065 423.969 402.803 423.969 416.047C423.969 429.295 434.707 440.029 447.951 440.029C461.195 440.029 471.933 429.295 471.933 416.047ZM439.957 416.047C439.957 411.632 443.537 408.053 447.951 408.053C452.366 408.053 455.945 411.632 455.945 416.047C455.945 420.462 452.366 424.041 447.951 424.041C443.537 424.041 439.957 420.462 439.957 416.047Z" fill="#97B8DB"/>
<path d="M240.108 56.3183C240.108 38.6597 225.791 24.3424 208.132 24.3424C190.474 24.3424 176.156 38.6597 176.156 56.3183C176.156 73.9807 190.474 88.2942 208.132 88.2942C225.791 88.2942 240.108 73.9807 240.108 56.3183ZM192.144 56.3183C192.144 47.489 199.303 40.3303 208.132 40.3303C216.961 40.3303 224.12 47.489 224.12 56.3183C224.12 65.1515 216.961 72.3062 208.132 72.3062C199.303 72.3062 192.144 65.1515 192.144 56.3183Z" fill="#97B8DB"/>
<path d="M288.072 40.3303H304.06V56.3183H288.072V40.3303Z" fill="#97B8DB"/>
<path d="M320.048 336.107H336.036V352.095H320.048V336.107Z" fill="#97B8DB"/>
<path d="M368.011 440.029H383.999V456.017H368.011V440.029Z" fill="#97B8DB"/>
<path d="M96.2166 208.204H112.204V224.192H96.2166V208.204Z" fill="#97B8DB"/>
<path d="M32.2648 208.926L48.2527 207.485C48.2137 207.103 45.0559 169.057 66.1182 145.93C78.2028 133.658 95.0104 127.214 112.204 128.264V112.276C90.4904 111.128 69.3501 119.485 54.2872 135.173C28.4825 163.441 32.1282 207.087 32.2648 208.926Z" fill="#97B8DB"/>
<path d="M320.048 112.276V128.264C324.045 128.264 417.216 129.97 432.053 241.237L447.896 239.126C431.163 113.732 321.16 112.276 320.048 112.276Z" fill="#97B8DB"/>
</g>
<defs>
<clipPath id="clip0">
<rect width="480" height="480" fill="white"/>
</clipPath>
</defs>
</svg>
