<svg width="512" height="512" viewBox="0 0 512 512" fill="none" xmlns="http://www.w3.org/2000/svg">
<path d="M423.9 374.752L375.9 70.752C375.663 69.2463 375 67.8398 373.99 66.698C372.981 65.5562 371.666 64.7266 370.2 64.307L306.592 46.134L295.311 20.751C294.683 19.3368 293.658 18.1352 292.36 17.292C291.062 16.4487 289.548 15.9999 288 16H224C222.453 15.9999 220.938 16.4487 219.641 17.292C218.343 18.1352 217.318 19.3368 216.689 20.751L205.408 46.135L141.8 64.308C140.335 64.7276 139.02 65.5572 138.01 66.699C137 67.8408 136.338 69.2473 136.1 70.753V70.753L88.1002 374.753C87.9201 375.895 87.9894 377.062 88.3036 378.174C88.6177 379.287 89.1692 380.318 89.9199 381.196C90.6707 382.075 91.603 382.781 92.6527 383.265C93.7023 383.749 94.8444 384 96.0002 384H134.828L120.168 454.368C119.808 456.097 120.03 457.896 120.8 459.486C121.569 461.075 122.843 462.365 124.422 463.155C127.1 464.5 190.86 496 256 496C321.14 496 384.9 464.5 387.578 463.155C389.158 462.365 390.431 461.075 391.201 459.486C391.97 457.896 392.192 456.097 391.832 454.368L377.172 384H416C417.156 384 418.298 383.749 419.348 383.265C420.398 382.781 421.33 382.075 422.081 381.196C422.832 380.317 423.383 379.286 423.697 378.174C424.011 377.061 424.081 375.894 423.9 374.752ZM359.046 77.762L337.111 224H294.035L276.987 164.333L326.314 100.911C327.204 99.7686 327.766 98.4063 327.943 96.9693C328.119 95.5322 327.902 94.0743 327.314 92.751L315.064 65.2L359.046 77.762ZM264 256V240H336V256H264ZM176 240H216V256H176V240ZM232 240H248V256H232V240ZM201.155 95.1L222.933 46.1L248.355 122.367L267.363 188.893L201.155 95.1ZM265.21 123.114L265.44 122.314L289.28 46.576L310.743 94.868L271.543 145.268L265.21 123.114ZM256.7 96.8L235.1 32H277.1L256.7 96.8ZM196.937 65.2L184.689 92.751C184.127 94.0165 183.903 95.4062 184.039 96.7843C184.174 98.1624 184.666 99.4817 185.464 100.613L251.141 193.655C249.498 194.91 248.405 196.753 248.092 198.797C247.779 200.841 248.271 202.927 249.463 204.616C250.655 206.305 252.456 207.467 254.487 207.857C256.518 208.246 258.62 207.834 260.353 206.706L272.56 224H174.89L152.954 77.762L196.937 65.2ZM105.362 368L143.8 124.58L160 232.6V263.177L138.161 368H105.362ZM137.125 451.427L174.505 272H280V478.552C272.035 479.495 264.021 479.978 256 480C205.312 480 153.781 458.9 137.125 451.427ZM296 476.165V272H337.5L374.881 451.431C362.664 456.917 331.689 469.731 296 476.165ZM373.839 368L352 263.174V232.594L368.2 124.578L406.638 368H373.839Z" fill="#97B8DB"/>
<path d="M256 304C260.418 304 264 300.418 264 296C264 291.582 260.418 288 256 288C251.582 288 248 291.582 248 296C248 300.418 251.582 304 256 304Z" fill="#97B8DB"/>
<path d="M256 352C260.418 352 264 348.418 264 344C264 339.582 260.418 336 256 336C251.582 336 248 339.582 248 344C248 348.418 251.582 352 256 352Z" fill="#97B8DB"/>
<path d="M256 400C260.418 400 264 396.418 264 392C264 387.582 260.418 384 256 384C251.582 384 248 387.582 248 392C248 396.418 251.582 400 256 400Z" fill="#97B8DB"/>
</svg>
