<svg width="512" height="512" viewBox="0 0 512 512" fill="none" xmlns="http://www.w3.org/2000/svg">
<path d="M315.743 85.333V128C315.743 160.939 288.948 187.733 256.01 187.733C223.072 187.733 196.277 160.939 196.277 128V85.333H179.21V128C179.21 170.342 213.668 204.8 256.01 204.8C298.361 204.8 332.81 170.342 332.81 128V85.333H315.743Z" fill="#97B8DB"/>
<path d="M495.882 437.743L449.956 253.867C445.075 234.991 428.085 222.149 409.243 221.893L307.201 213.974V179.2H290.134V221.867C290.134 226.321 293.564 230.025 298.01 230.375L408.602 238.934C408.619 238.934 408.636 238.934 408.653 238.934C420.327 238.934 430.515 246.827 433.425 258.066L479.334 441.891C480.179 445.279 480.614 448.769 480.614 452.268C480.605 475.794 461.465 494.935 437.939 494.935V512C470.869 512 497.672 485.205 497.681 452.267C497.683 447.369 497.077 442.479 495.882 437.743Z" fill="#97B8DB"/>
<path d="M204.81 179.2V213.973L103.451 221.866C103.417 221.866 103.391 221.866 103.366 221.866C83.919 221.866 66.929 235.016 62.039 253.934L16.138 437.734C12.255 453.213 14.628 469.273 22.828 482.961C31.02 496.648 44.059 506.325 59.53 510.199C64.283 511.394 69.173 511.999 74.079 511.999V494.932C70.58 494.932 67.09 494.497 63.694 493.643C52.635 490.87 43.325 483.966 37.471 474.187C31.617 464.408 29.919 452.939 32.692 441.871L78.584 258.131C81.511 246.807 91.725 238.905 104.099 238.905L214.008 230.372C218.445 230.031 221.876 226.319 221.876 221.864V179.2H204.81Z" fill="#97B8DB"/>
<path d="M290.143 0H221.876C198.35 0 179.21 19.14 179.21 42.667V93.867C179.21 98.577 183.033 102.4 187.743 102.4H324.276C328.986 102.4 332.809 98.577 332.809 93.867V42.667C332.81 19.14 313.67 0 290.143 0ZM315.743 85.333H196.277V42.667C196.277 28.553 207.763 17.067 221.877 17.067H290.144C304.258 17.067 315.744 28.553 315.744 42.667V85.333H315.743Z" fill="#97B8DB"/>
<path d="M290.143 51.2H221.876C198.35 51.2 179.209 70.34 179.209 93.867C179.209 98.577 183.032 102.4 187.742 102.4H324.275C328.985 102.4 332.808 98.577 332.808 93.867C332.81 70.34 313.67 51.2 290.143 51.2ZM197.744 85.333C201.26 75.4 210.749 68.266 221.876 68.266H290.143C301.27 68.266 310.76 75.4 314.284 85.333H197.744Z" fill="#97B8DB"/>
<path d="M256.01 128V93.867H238.943V136.534C238.943 141.244 242.766 145.067 247.476 145.067H264.543V128H256.01Z" fill="#97B8DB"/>
<path d="M179.21 460.8H110.943V443.733C110.943 429.619 99.4572 418.133 85.3432 418.133C71.2292 418.133 59.7432 429.619 59.7432 443.733V503.466C59.7432 508.185 63.5662 511.999 68.2762 511.999H145.076C168.602 511.999 187.743 492.859 187.743 469.332C187.743 464.614 183.92 460.8 179.21 460.8ZM145.077 494.933H76.8102V443.733C76.8102 439.023 80.6412 435.2 85.3432 435.2C90.0452 435.2 93.8762 439.023 93.8762 443.733V469.333C93.8762 474.052 97.6992 477.866 102.409 477.866H169.216C165.693 487.799 156.204 494.933 145.077 494.933Z" fill="#97B8DB"/>
<path d="M102.401 366.933H42.668V384H102.401V366.933Z" fill="#97B8DB"/>
<path d="M469.335 366.933H409.602V384H469.335V366.933Z" fill="#97B8DB"/>
<path d="M384.002 426.667H366.935V443.734H384.002V426.667Z" fill="#97B8DB"/>
<path d="M349.868 426.667H332.801V443.734H349.868V426.667Z" fill="#97B8DB"/>
<path d="M292.635 215.834L256.01 252.468L219.376 215.834L207.31 227.9L249.977 270.567C251.573 272.171 253.749 273.067 256.01 273.067C258.271 273.067 260.447 272.171 262.043 270.567L304.701 227.9L292.635 215.834Z" fill="#97B8DB"/>
<path d="M426.677 418.133C412.563 418.133 401.077 429.619 401.077 443.733V460.8H332.81C328.091 460.8 324.277 464.614 324.277 469.333C324.277 492.859 343.417 512 366.944 512H443.744C448.454 512 452.277 508.186 452.277 503.467V443.734C452.277 429.619 440.791 418.133 426.677 418.133ZM435.21 494.933H366.943C355.816 494.933 346.326 487.799 342.802 477.866H409.609C414.328 477.866 418.142 474.052 418.142 469.333V443.733C418.142 439.023 421.965 435.2 426.675 435.2C431.385 435.2 435.208 439.023 435.208 443.733V494.933H435.21Z" fill="#97B8DB"/>
<path d="M409.601 315.733H102.401V332.8H409.601V315.733Z" fill="#97B8DB"/>
<path d="M290.143 256H221.876C217.166 256 213.343 259.823 213.343 264.533V375.466C213.343 380.185 217.166 383.999 221.876 383.999H290.143C294.853 383.999 298.676 380.185 298.676 375.466V264.533C298.677 259.823 294.862 256 290.143 256ZM281.61 366.933H230.41V273.066H281.61V366.933Z" fill="#97B8DB"/>
<path d="M409.61 256H102.41C97.7 256 93.877 259.823 93.877 264.533V469.333C93.877 474.052 97.7 477.866 102.41 477.866H409.61C414.32 477.866 418.143 474.052 418.143 469.333V264.533C418.143 259.823 414.329 256 409.61 256ZM401.077 460.8H110.943V273.067H401.076V460.8H401.077Z" fill="#97B8DB"/>
</svg>
